<!DOCTYPE svg PUBLIC "-//W3C//DTD SVG 1.1//EN" "http://www.w3.org/Graphics/SVG/1.1/DTD/svg11.dtd">
<!-- Uploaded to: SVG Repo, www.svgrepo.com, Transformed by: SVG Repo Mixer Tools -->
<svg height="800px" width="800px" version="1.1" id="Layer_1" xmlns="http://www.w3.org/2000/svg" xmlns:xlink="http://www.w3.org/1999/xlink" viewBox="0 0 512.001 512.001" xml:space="preserve" fill="#000000">
<g id="SVGRepo_bgCarrier" stroke-width="0"/>
<g id="SVGRepo_tracerCarrier" stroke-linecap="round" stroke-linejoin="round"/>
<g id="SVGRepo_iconCarrier"> <circle style="fill:#D8DBBA;" cx="255.997" cy="256.001" r="255.997"/> <path style="fill:#C6C9A3;" d="M507.337,207.255L386.644,86.561L158.351,314.853l71.799,71.799l9.153,52.811l67.491,67.491 c117.052-23.56,205.207-126.959,205.207-250.95c0-16.675-1.612-32.967-4.654-48.749h-0.01V207.255z"/> <path style="fill:#333333;" d="M133.553,279.901c0.683,2.851,1.448,5.628,2.295,8.351c-4.39,10.281-9.635,25.063-7.404,32.857 c3.643,12.723,7.923,15.008,10.054,18.233c2.14,3.233,2.568,5.128,2.568,5.128s0.856-8.169-2.568-17.859 c-1.831-5.182,2.203-11.656,6.365-16.565c0.51,0.984,1.029,1.958,1.557,2.923c-1.831,5.373-2.596,12.412,0.847,20.099 c7.495,16.721,14.335,19.571,14.335,26.41s0,6.839,0,6.839s6.639-10.637,0-22.986c-6.63-12.349-6.63-12.349-6.63-12.349 s10.701,11.392,14.553,21.465c3.853,10.063,0.856,15.391,11.128,23.933c10.272,8.552,13.06,13.296,13.06,13.296 s-6.42-11.967-5.345-16.911c0.447-2.086,0.938-4.271,1.357-6.101c2.158,2.149,4.244,4.225,6.238,6.229l7.176,14.489l0.474-6.548 l0.783,0.856c5.3,5.846,10.09,10.491,14.534,14.17c0.382,4.772-0.865,11.611-5.099,13.943c0,0,9.471-2.176,13.333-7.941 c0.465,0.291,0.929,0.574,1.384,0.847c-0.692,5.647-0.447,12.777,3.26,18.879c7.486,12.349,7.486,17.859,7.486,17.859 s1.713-19.188,0.219-25.837c-0.428-1.885-0.501-4.043-0.401-6.166c2.232,0.692,4.426,1.174,6.611,1.512 c-1.63,2.941-0.237,4.854,2.222,12.44c-0.528-9.762,2.796-9.836,7.523-11.575c8.306,0.574-1.903,0.373,6.402-0.192 c4.726,1.74,3.196,11.056,2.668,20.818c9.735-16.657,1.429-20.008,11.137-23.004c0.1,2.122,0.018,4.28-0.401,6.166 c-1.503,6.648,0.219,25.837,0.219,25.837s1.894-8.633,7.486-17.859c5.591-9.225,7.031-15.136,6.338-20.791 c4.772-2.805,6.548,8.505,6.894,12.103c4.873-10.665,6.384-17.75,2.987-21.064c4.672-3.862,3.269-1.693,7.404-6.22 c1.084,5.374,4.745,6.147,2.359,15.364c7.741-11.502,11.365-21.465,9.872-28.086c1.995-2.004,4.08-4.08,6.238-6.229 c0.41,1.83,0.901,4.016,1.357,6.101c1.075,4.945-5.345,16.912-5.345,16.912s2.787-4.754,13.06-13.296 c10.272-8.552,7.277-13.87,11.128-23.933c3.853-10.072,14.553-21.465,14.553-21.465s0,0-6.63,12.349 c-6.639,12.349,0,22.986,0,22.986s0,0,0-6.839s6.848-9.69,14.335-26.41c3.442-7.686,2.677-14.735,0.847-20.099 c0.528-0.966,1.056-1.939,1.557-2.923c4.153,4.909,8.196,11.392,6.365,16.565c-3.424,9.69-2.568,17.859-2.568,17.859 s0.428-1.894,2.568-5.128s6.421-5.51,10.054-18.233c2.232-7.796-3.005-22.576-7.404-32.857c0.847-2.723,1.621-5.51,2.295-8.351 l1.467,0.555c8.988,3.415,8.351,24.316,8.351,24.316s3.853-5.128,3.205-21.847c-0.647-16.72-8.342-28.878-8.342-28.878 s7.277,0.574,10.272,11.967c2.995,11.392,9.417,14.443,9.417,14.443s0,0-3.424-6.648s0.646-10.063-2.14-26.975 c-2.778-16.911-16.693-21.847-16.693-21.847s0.646-0.574,6.421,0.564c5.774,1.138,9.945,1.512,16.147,12.531 c6.211,11.019,13.141,13.15,8.433,9.726c-3.807-2.769-0.018-30.426-36.783-49.232c6.101,2.577,27.977,9.872,26.155,8.469 c-34.852-26.838-41.045-16.893-10.573-16.666c-11.119-3.871-22.366-20.208-27.476-18.969c-4.781-7.95-7.814-5.255,2.532-14.425 c13.423-11.902,16.657-50.525,18.459-70.424c-29.234,14.617-28.176,24.898-57.848,32.175c-10.873,2.668-21.61,8.751-30.699,15.209 c-4.909-15.809,12.421-23.14,12.421-23.14s0,0-10.164-0.665c-10.164-0.665-23.86,10.637-23.86,10.637s-2.35,1.038-1.503-2.659 c0.856-3.706,14.553-12.823,14.553-12.823s-16.265,4.372-23.323,13.87c-0.619,0.829-1.23,1.594-1.84,2.286l-6.994,1.693 l-6.994-1.693c-0.61-0.692,1.995,2.878-1.84-2.286c-3.843-5.164-11.265-5.892-11.265-5.892s1.639,1.138,2.496,4.844 c0.856,3.706-1.503,2.659-1.503,2.659s-13.697-11.302-23.86-10.637c-10.163,0.666-10.164,0.665-10.164,0.665 s17.33,7.331,12.421,23.14c-9.089-6.457-19.826-12.54-30.699-15.209c-29.67-7.277-28.605-17.558-57.848-32.175 c1.803,19.899,5.045,58.521,18.459,70.424c8.997,7.977,8.825,5.656,4.453,12.913c-9.799,3.788-27.685,18.059-32.229,21.055 c7.769-3.288,9.981-2.194,22.795-3.543c-0.637,1.33-0.3,0.656-0.901,2.067c-3.934,2.932-3.233,4.745-3.488,9.098 c-36.773,18.806-32.976,46.472-36.783,49.232c-4.708,3.424,2.222,1.293,8.433-9.726c3.014-5.345,17.003-18.041,22.567-13.096 c0,0-13.915,4.936-16.693,21.847c-2.778,16.911,1.284,20.327-2.14,26.975c-3.424,6.648-3.424,6.648-3.424,6.648 s6.42-3.042,9.417-14.443c2.996-11.392,10.272-11.967,10.272-11.967s-7.704,12.157-8.342,28.878 c-0.646,16.721,3.205,21.847,3.205,21.847s-0.637-20.901,8.351-24.316l1.467-0.555h-0.025V279.901z"/> <path style="fill:#cc0000;" d="M336.765,189.214l-66.526,50.98c0,0,25.271,19.224,53.176,8.606S336.765,189.214,336.765,189.214z"/> <path style="fill:#920202;" d="M336.765,189.214l-66.526,50.98c0,0,0.282,0.21,0.81,0.574l62.346-39.852 c4.9,15.545,3.916,29.215-2.14,42.994c16.985-16.073,5.51-54.706,5.51-54.706L336.765,189.214L336.765,189.214z"/> <path style="fill:#cc0000;" d="M175.217,189.214l66.535,50.98c0,0-25.271,19.224-53.175,8.606s-13.351-59.586-13.351-59.586H175.217 z"/> <path style="fill:#920202;" d="M175.217,189.214l66.535,50.98c0,0-0.282,0.21-0.81,0.574l-62.346-39.852 c-4.9,15.545-3.916,29.215,2.14,42.994c-16.985-16.073-5.51-54.706-5.51-54.706L175.217,189.214z"/> <path style="fill:#9a1818;" d="M211.654,293.433c0,0,8.697,1.831,10.054,3.898c1.357,2.067,1.548,2.587,3.862,2.587 c2.314,0,5.81,1.803,6.994,2.377c1.184,0.574,2.122,1.284,4.426,0.702c2.313-0.574,5.128,0.51,6.539,1.603 c1.411,1.093,2.95,1.029,5.128,0.255c2.176-0.774,7.759-0.192,8.724,0.574c0.966-0.774,6.539-1.348,8.724-0.574 c2.176,0.774,3.715,0.829,5.128-0.255c1.411-1.093,4.235-2.176,6.539-1.603c2.313,0.574,3.242-0.137,4.426-0.702 c1.184-0.574,4.681-2.377,6.994-2.377c2.313,0,2.505-0.51,3.862-2.587c1.357-2.067,10.054-3.898,10.054-3.898 s-20.673,74.021-21.374,74.021c-0.702,0-2.176-0.447-4.298-1.093c-2.122-0.646-5.063,3.98-6.866,4.108 c-1.794,0.128-3.725-1.029-3.725-1.029l-2.304,0.865c0,0-1.411-0.091-2.76,0.036c-1.348,0.128-4.399,0.064-4.399,0.064 s-3.06,0.064-4.399-0.064c-1.348-0.128-2.76-0.036-2.76-0.036l-2.304-0.865c0,0-1.921,1.156-3.725,1.029 c-1.794-0.128-4.745-4.745-6.866-4.108c-2.122,0.646-3.598,1.093-4.298,1.093C232.327,367.455,211.654,293.433,211.654,293.433z"/> <g> <path style="fill:#ffffff;" d="M210.224,289.025c1.63-1.221,11.165,1.713,11.365,6.967c0.474,12.322,3.279,27.393,9.408,38.258 c0.228,0.41-0.1,0.665-0.428,0.555C218.748,330.727,207.911,299.371,210.224,289.025z M304.536,289.025 c-1.63-1.221-11.165,1.713-11.365,6.967c-0.474,12.322-3.279,27.393-9.408,38.258c-0.228,0.41,0.1,0.665,0.428,0.555 C296.011,330.727,306.848,299.371,304.536,289.025z M259.802,303.752c0,0,2.194-3.051,4.799-2.44c2.605,0.61,4.135,2.44,2.605,6.53 c-0.091,0.255-7.34,15.364-7.194,7.659c0.054-2.769-1.02-10.054-0.201-11.748h-0.009V303.752z M277.606,299.845 c0,0-6.475-0.282-6.885,4.135c-0.41,4.417,0.756,9.198-0.774,11.502s-0.009,2.113,2.941,0.328 c4.043-2.44,7.986-14.717,4.717-15.974v0.009H277.606z M289.09,298.06c0,0-7.55-0.564-7.959,3.853 c-0.41,4.417,0.765,10.573-0.711,12.777c-1.485,2.213,1.02,2.259,2.75,0.564C286.486,312.021,292.359,299.317,289.09,298.06z M254.949,303.743c0,0-2.194-3.051-4.799-2.44c-2.605,0.61-4.135,2.44-2.605,6.53c0.091,0.255,7.34,15.364,7.194,7.659 c-0.054-2.769,1.02-10.054,0.201-11.748h0.009V303.743z M237.145,299.836c0,0,6.475-0.282,6.885,4.135 c0.41,4.417-0.756,9.198,0.774,11.502s0.009,2.113-2.941,0.328c-4.043-2.44-7.986-14.717-4.717-15.974v0.009H237.145z M225.661,298.051c0,0,7.55-0.564,7.959,3.853c0.41,4.417-0.765,10.573,0.711,12.777c1.485,2.213-1.02,2.259-2.751,0.565 C228.265,312.012,222.391,299.308,225.661,298.051z"/> <path style="fill:#ffffff;" d="M228.611,349.031c0.382-2.987-2.823-3.451-3.524,0.155c-0.711,3.616-0.192,17.759,4.043,20.163 c4.235,2.413,6.675-0.419,6.675-0.419c3.415-4.891-8.779-7.523-7.185-19.908L228.611,349.031z M286.158,349.031 c-0.382-2.987,2.823-3.451,3.524,0.155c0.711,3.616,0.191,17.759-4.043,20.163c-4.235,2.413-6.675-0.419-6.675-0.419 c-3.415-4.891,8.779-7.523,7.185-19.908L286.158,349.031z M264.091,361.481c0.948,2.869,2.341,9.981-1.693,10.509 C254.675,372.992,263.145,358.612,264.091,361.481z M272.197,362c0.118-1.548,1.803-2.65,2.422-0.783 c0.61,1.867,1.53,10.345-2.523,10.719C263.463,372.728,271.988,364.686,272.197,362z M250.677,361.481 c-0.948,2.869-2.341,9.981,1.693,10.509C260.094,372.992,251.625,358.612,250.677,361.481z M242.572,362 c-0.118-1.548-1.803-2.65-2.422-0.783c-0.61,1.867-1.53,10.345,2.523,10.719C251.306,372.728,242.781,364.686,242.572,362z"/> </g> </g>
</svg>